<svg width="32" height="32" viewBox="0 0 32 32" fill="none" xmlns="http://www.w3.org/2000/svg">
<g clip-path="url(#clip0_6426_593289)">
<path fill-rule="evenodd" clip-rule="evenodd" d="M28 15.98C28 22.5962 22.6274 27.9598 16 27.9598C9.3726 27.9598 4 22.5962 4 15.98C4 9.36359 9.3726 4.00002 16 4.00002C22.6274 4.00002 28 9.36359 28 15.98Z" fill="#FFEE00"/>
<path fill-rule="evenodd" clip-rule="evenodd" d="M16.1016 6.01253C10.5264 6.01253 5.9907 10.5407 5.9907 16.1066C5.9907 21.6724 10.5264 26.2006 16.1016 26.2006C21.6768 26.2006 26.2126 21.6724 26.2126 16.1066C26.2126 10.5407 21.6768 6.01253 16.1016 6.01253ZM16.1016 26.96C10.107 26.96 5.22998 22.0912 5.22998 16.1066C5.22998 10.122 10.107 5.25313 16.1016 5.25313C22.0963 5.25313 26.9732 10.122 26.9732 16.1066C26.9732 22.0912 22.0963 26.96 16.1016 26.96Z" fill="#172E5A"/>
<path fill-rule="evenodd" clip-rule="evenodd" d="M10.8385 11.465L8.35352 8.88289L8.90207 8.3567L11.387 10.9387L10.8385 11.465Z" fill="#172E5A"/>
<path fill-rule="evenodd" clip-rule="evenodd" d="M21.1744 11.465L23.6594 8.88289L23.1109 8.3567L20.626 10.9387L21.1744 11.465Z" fill="#172E5A"/>
<path fill-rule="evenodd" clip-rule="evenodd" d="M21.1744 20.5835L23.6594 23.1656L23.1108 23.6916L20.626 21.1096L21.1744 20.5835Z" fill="#172E5A"/>
<path fill-rule="evenodd" clip-rule="evenodd" d="M10.8385 20.5835L8.35352 23.1656L8.90207 23.6916L11.3871 21.1096L10.8385 20.5835Z" fill="#172E5A"/>
<path fill-rule="evenodd" clip-rule="evenodd" d="M21.4541 16.7606C21.4008 18.7792 20.8999 20.0522 20.6862 20.506C15.4573 22.1492 12.2741 20.9395 11.4957 20.5741C11.2882 19.916 11.1261 19.2903 11.002 18.6978C10.9333 18.3695 9.25411 17.6569 8.75134 16.7606C8.35157 16.048 9.10065 15.1586 9.08893 14.6891C9.06041 13.5463 10.7754 13.7114 10.8274 13.4142C11.0077 12.3843 11.2832 11.7052 11.4274 11.399C16.6561 9.75579 19.8393 10.9655 20.6179 11.3309C21.2079 13.202 21.4296 14.809 21.4558 16.1389C21.5724 15.8073 21.7525 15.4082 22.0124 15.1131C22.0124 15.1131 22.0879 15.2081 22.1919 15.3697C22.0988 14.0858 21.831 12.5935 21.2785 10.8987L21.0861 10.9612L21.1981 10.7756C21.0509 10.6868 17.513 8.62176 10.9946 10.7396L11.0573 10.9321L10.8713 10.8198C10.828 10.8914 10.3166 11.7633 10.0466 13.3885C9.99127 13.7214 9.82211 13.7681 9.08893 14.6891C8.75134 15.1131 8.52449 16.0526 8.75134 16.7606C9.04387 17.6737 10.1609 18.3953 10.2232 18.7021C10.3695 19.423 10.5695 20.1913 10.8352 21.0062L11.0275 20.9438L10.9155 21.1293C11.0133 21.1884 12.603 22.1171 15.5663 22.1171C17.0691 22.1171 18.9257 21.8781 21.119 21.1655L21.0562 20.9728L21.2424 21.0851C21.2993 20.9911 22.1649 19.5138 22.228 16.7606" fill="#172E5A"/>
<path fill-rule="evenodd" clip-rule="evenodd" d="M12.4313 10.8475L13.5977 11.1007L13.9527 11.4804L14.1048 11.8347L14.0795 12.2144L14.021 12.5453L13.9471 12.8872L13.9068 13.1418L13.927 13.3764L13.9336 13.5574L14.1418 13.9127L14.2022 14.1874L14.2425 14.3281L14.1485 14.3885L14.0008 14.3952L13.9336 14.4555L14.0477 14.5426C14.0477 14.5426 14.4238 14.8041 14.4506 15.1727L14.3969 15.2933L14.37 15.4072L14.4305 15.5212L14.6184 15.5078L14.7258 15.4608L14.7192 15.3268L14.652 15.2397L14.6184 15.1258L14.6319 14.9582C14.6319 14.9582 14.6454 14.3817 14.4104 14.1472C14.4506 13.973 14.5379 13.9863 14.5379 13.9863C14.5379 13.9863 14.6721 13.9327 14.7258 14.1673C14.7796 14.4019 14.9344 15.3116 14.9344 15.3116C14.9344 15.3116 15.0064 15.3596 15.0213 15.8228C15.0078 16.0708 15.2025 16.3992 15.2025 16.3992C15.2025 16.3992 15.3837 16.7545 16.3036 16.9019C16.3036 16.9019 16.5721 16.922 16.5855 17.0896C16.5989 17.2572 16.5049 17.2906 16.5049 17.2906C16.5049 17.2906 16.4378 17.3643 16.3774 17.5185C16.317 17.6727 16.2431 17.6793 16.2431 17.6793L16.1022 17.686L16.082 17.7598L16.1022 17.8671L16.1291 17.981L16.0418 18.1418C16.0418 18.1418 15.3435 18.3965 15.4174 18.6579L15.5248 18.7786L15.5047 18.8925L15.3704 18.9595C15.3704 18.9595 15.0884 18.9127 15.1623 19.3349C15.2361 19.7571 15.7597 20.2531 15.7329 20.863C15.706 21.4729 15.3838 21.6807 15.3838 21.6807C15.3838 21.6807 15.0482 22.0694 15.0213 22.5789L14.981 22.7264L14.8534 22.9005C14.8534 22.9005 14.3768 24.4489 14.8265 24.7841C14.8265 24.7841 15.0616 24.8577 15.169 24.268C15.2025 23.9729 15.3972 23.8725 15.3972 23.8725L15.4979 23.7853C15.4979 23.7853 15.4375 23.5172 15.8873 23.3094C16.3371 23.1017 16.3237 23.1888 16.3237 23.1888C16.3237 23.1888 16.6863 23.1016 17.2099 22.2705C17.7335 21.4395 18.5124 21.2987 18.5124 21.2987C18.5124 21.2987 19.0628 20.7961 19.0561 20.1593C19.0628 19.7974 18.4251 19.3885 18.0357 19.1271C17.9081 19.0601 18.0424 18.9059 18.0424 18.9059C18.0424 18.9059 18.1632 18.8523 18.1432 18.7116C18.123 18.5708 17.8746 18.4166 17.8746 18.4166C17.8746 18.4166 17.398 18.0346 17.3644 17.7866C17.3308 17.5386 17.0824 17.3979 17.0824 17.3979C17.0824 17.3979 16.6057 17.2436 16.6326 16.808C16.6326 16.5869 17.0287 16.5065 17.0287 16.5065L17.2032 16.4863L17.1696 16.4193L17.0756 16.3791L17.0085 16.3389L16.8138 16.3322L16.7735 16.3992C16.7735 16.3992 16.6258 16.6271 16.3506 16.6271C16.0753 16.6271 15.988 16.0105 15.988 16.0105C15.988 16.0105 15.9142 15.5414 16.0954 15.3671C16.2767 15.1928 16.4245 14.8778 16.8138 14.8912C17.2033 14.9046 17.1227 15.1861 17.1227 15.1861H17.23C17.23 15.1861 17.3711 14.9247 17.4986 14.9582C17.6262 14.9917 17.6463 15.1123 17.6463 15.1123C17.6463 15.1123 17.6464 14.8376 17.8679 14.7236C18.0021 14.6566 17.9618 14.5427 17.9081 14.5091C17.8544 14.4756 17.9551 14.3416 17.9551 14.3416C17.9551 14.3416 18.1095 14.2008 18.0021 14.0601C17.8947 13.9193 18.123 13.8254 18.123 13.8254C18.123 13.8254 18.425 13.6646 18.4721 13.5373C18.5191 13.4099 18.9152 13.4904 18.9152 13.4904L19.0898 13.2893L19.224 13.0413L19.4792 12.7665L19.4187 12.6526L19.3515 12.5788L19.4254 12.4984L19.3449 12.4045C19.3449 12.4045 18.9085 12.237 18.8951 12.0694C18.8816 11.9019 19.036 11.9823 19.036 11.9823L19.1972 11.8818L19.1904 11.7612L19.083 11.6874L18.9689 11.6203C18.9689 11.6203 19.0628 11.3925 18.8414 11.3456C18.6198 11.2987 18.3916 11.4997 18.3916 11.4997L18.3244 11.6606L18.1968 11.7678L18.0223 11.8684L17.9215 11.8014L17.8142 11.7209L17.7671 11.6739H17.6127L17.5859 11.5399L17.5322 11.4528L17.4516 11.359L17.3711 11.2785L17.465 11.1646L17.5255 11.0507L17.559 10.9032L17.6262 10.8362C17.6262 10.8362 17.6665 10.7691 17.6866 10.749C17.7067 10.729 17.7806 10.6016 17.7806 10.6016L17.9081 10.5145L18.0223 10.481C18.0223 10.481 18.1902 10.4675 18.2102 10.4742C18.2304 10.481 18.4453 10.4675 18.4453 10.4675L18.5526 10.3536C18.5526 10.3536 18.546 10.2665 18.5728 10.2665C18.5996 10.2665 18.7003 10.0989 18.7003 10.0989L18.7607 9.96489L18.6937 9.82411L18.5124 9.79059L18.3849 9.72356L18.3646 9.80403L18.3445 9.91793L18.2304 9.97158L18.2102 9.88441L18.17 9.77051C18.1028 9.71021 18.0155 9.62974 18.0155 9.62974L17.9753 9.54261L17.9283 9.42871C17.9283 9.42871 17.935 9.34154 17.9215 9.36832C17.9215 9.36832 17.7469 9.46218 17.7537 9.48231C17.7605 9.5024 17.7403 9.62304 17.7403 9.62304L17.653 9.68339L17.2972 9.69678L17.0958 9.68339L16.9212 9.60965C16.9212 9.60965 16.8406 9.52248 16.8339 9.54931C16.8273 9.57613 16.6392 9.58283 16.6392 9.58283C16.6392 9.58283 16.3909 9.64987 16.3976 9.66995C16.4043 9.69004 16.2162 9.67669 16.2162 9.67669L16.1022 9.51583L16.0484 9.31472L15.894 9.18068L15.7664 9.03326L15.6926 8.84558L15.518 8.73832L15.31 8.73158C15.31 8.73158 15.0884 8.79202 15.1086 8.79867C15.1287 8.80532 14.934 8.83214 14.934 8.83214L14.7192 8.82549L14.558 8.72493L14.3365 8.58421L14.0881 8.3697L13.9202 8.18201L13.8128 8.00777L13.6248 7.90047L13.2623 7.9206L13.0608 8.01451L12.8796 8.10159C12.8796 8.10159 12.6781 8.18201 12.705 8.1954C12.7319 8.20879 12.658 8.33613 12.6849 8.34957C12.7118 8.363 12.6849 8.47695 12.7118 8.49704C12.7386 8.51717 12.7789 8.65789 12.7789 8.65789L12.7655 8.8254L12.5976 8.8724L12.4499 8.88579L12.3298 8.85897C12.3298 8.85897 12.1948 8.97961 12.2149 8.99305C12.2351 9.00643 12.3298 9.09351 12.3298 9.09351L12.4566 9.20077L12.5305 9.30802L12.4634 9.43541L12.3298 9.4957L12.1679 9.54931C12.1679 9.54931 11.98 9.60291 11.98 9.62304C11.98 9.64313 11.7987 9.74369 11.7987 9.74369C11.7987 9.74369 11.7585 9.83755 11.7786 9.85763C11.7987 9.87776 11.8927 9.92467 11.8927 9.92467L12.0136 9.97832C12.0136 9.97832 12.0203 10.0453 12.0136 10.0654C12.0068 10.0855 11.9128 10.1726 11.9128 10.1726C11.9128 10.1726 11.8255 10.3268 11.8457 10.3335C11.8658 10.3403 11.8457 10.4609 11.886 10.481C11.9263 10.501 12.0807 10.6217 12.1008 10.6351C12.121 10.6485 12.3298 10.7156 12.3298 10.729C12.3298 10.7424 12.4313 10.8475 12.4313 10.8475Z" fill="#172E5A"/>
<path fill-rule="evenodd" clip-rule="evenodd" d="M19.029 9.19406C19.0492 9.20076 19.2371 9.24092 19.2506 9.2611C19.264 9.28118 19.4117 9.41522 19.4318 9.42865C19.4519 9.44209 19.5192 9.5426 19.5325 9.56269C19.5459 9.58277 19.5594 9.75037 19.5594 9.75037L19.5191 9.96483L19.6601 10.0721L19.7541 10.1793L19.7675 10.3134L19.9756 10.3536L20.2107 10.3804L20.3248 10.4407L20.5194 10.5278L20.6671 10.6083C20.6671 10.6083 20.7881 10.7155 20.8015 10.7356C20.8148 10.7558 20.9021 10.9032 20.9021 10.9032C20.9021 10.9032 20.8283 11.0439 20.8283 11.0708C20.8283 11.0976 20.5597 11.2383 20.5597 11.2383L20.3516 11.3053L20.1099 11.2048L20.0092 11.0774L19.875 11.0037H19.6937L19.5527 11.0841L19.4855 11.1847L19.4453 11.2852L19.3043 11.2785L19.2371 11.2048C19.2371 11.2048 19.1968 11.0708 19.2236 11.0708C19.2506 11.0708 19.2103 10.9233 19.2103 10.9233L19.1566 10.7892L19.0357 10.7624C19.0357 10.7624 18.8881 10.7088 18.9082 10.7088C18.9284 10.7088 19.0693 10.5078 19.0693 10.5078L19.2774 10.4273L19.3445 10.2799L19.2976 10.1324C19.2976 10.1324 19.1902 9.9984 19.2103 10.005C19.2305 10.0117 19.1297 9.90449 19.1297 9.90449C19.1297 9.90449 18.982 9.80402 19.0022 9.80402C19.0223 9.80402 18.8612 9.66994 18.8612 9.66994C18.8612 9.66994 18.653 9.56938 18.6866 9.56269C18.7201 9.55599 18.6463 9.38174 18.6799 9.38174C18.7135 9.38174 18.6867 9.20745 18.7135 9.21415C18.7403 9.22089 18.7805 9.14046 18.8075 9.14046C18.8343 9.14046 19.029 9.19406 19.029 9.19406Z" fill="#172E5A"/>
<path fill-rule="evenodd" clip-rule="evenodd" d="M13.3637 18.1519C12.7176 18.8647 11.7668 19.3151 10.7067 19.3151C8.76006 19.3151 7.18213 17.7964 7.18213 15.923C7.18213 14.0496 8.76006 12.5309 10.7067 12.5309C11.7936 12.5309 12.7655 13.0043 13.4119 13.7487L12.4633 14.6712C12.0756 14.1638 11.4508 13.8345 10.7461 13.8345C9.56951 13.8345 8.6156 14.7526 8.6156 15.885C8.6156 17.0175 9.56951 17.9354 10.7461 17.9354C11.4298 17.9354 12.0384 17.6255 12.4282 17.1437L13.3637 18.1519Z" fill="#EE3B39"/>
<path fill-rule="evenodd" clip-rule="evenodd" d="M13.3637 18.1519C12.7176 18.8647 11.7668 19.3151 10.7067 19.3151C8.76006 19.3151 7.18213 17.7964 7.18213 15.923C7.18213 14.0496 8.76006 12.5309 10.7067 12.5309C11.7936 12.5309 12.7655 13.0043 13.4119 13.7487L12.4633 14.6712C12.0756 14.1638 11.4508 13.8345 10.7461 13.8345C9.56951 13.8345 8.6156 14.7526 8.6156 15.885C8.6156 17.0175 9.56951 17.9354 10.7461 17.9354C11.4298 17.9354 12.0384 17.6255 12.4282 17.1437L13.3637 18.1519Z" stroke="#172E5A" stroke-width="0.5"/>
<path fill-rule="evenodd" clip-rule="evenodd" d="M21.3195 16.7607C21.3195 16.7607 21.5179 15.7179 22.0506 15.1132C22.0506 15.1132 22.6565 15.8743 22.8027 16.7607H21.3195ZM24.8304 19.429C24.805 13.5055 21.9144 12.2905 21.9144 12.2905C18.9223 15.0244 19.2012 19.4543 19.2012 19.4543H20.7226V18.5177H23.3851V19.429H24.8304Z" fill="#EE3B39"/>
<path fill-rule="evenodd" clip-rule="evenodd" d="M21.3195 16.7607C21.3195 16.7607 21.5179 15.7179 22.0506 15.1132C22.0506 15.1132 22.6565 15.8743 22.8027 16.7607H21.3195ZM24.8304 19.429C24.805 13.5055 21.9144 12.2905 21.9144 12.2905C18.9223 15.0244 19.2012 19.4543 19.2012 19.4543H20.7226V18.5177H23.3851V19.429H24.8304Z" stroke="#172E5A" stroke-width="0.5"/>
<path fill-rule="evenodd" clip-rule="evenodd" d="M25.0263 26.8569H25.1454C25.2844 26.8569 25.3969 26.8106 25.3969 26.6983C25.3969 26.5992 25.3241 26.5331 25.1652 26.5331C25.0991 26.5331 25.0527 26.5397 25.0263 26.5463V26.8569ZM25.0196 27.4714H24.7682V26.3878C24.8674 26.368 25.0064 26.3547 25.1851 26.3547C25.3902 26.3547 25.4829 26.3878 25.5624 26.434C25.622 26.4802 25.6683 26.5661 25.6683 26.6719C25.6683 26.7909 25.5756 26.8833 25.4432 26.9229V26.9362C25.5492 26.9759 25.6087 27.0551 25.6418 27.2004C25.6749 27.3657 25.6948 27.4318 25.7212 27.4714H25.4499C25.4167 27.4318 25.3969 27.3326 25.3638 27.207C25.344 27.0881 25.2778 27.0353 25.1388 27.0353H25.0196V27.4714ZM24.3512 26.9031C24.3512 27.3855 24.7086 27.7687 25.1984 27.7687C25.6749 27.7687 26.0257 27.3855 26.0257 26.9097C26.0257 26.4274 25.6749 26.0376 25.1917 26.0376C24.7086 26.0376 24.3512 26.4274 24.3512 26.9031ZM26.3036 26.9031C26.3036 27.5176 25.8205 28 25.1917 28C24.5696 28 24.0732 27.5176 24.0732 26.9031C24.0732 26.3019 24.5696 25.8195 25.1917 25.8195C25.8205 25.8195 26.3036 26.3019 26.3036 26.9031Z" fill="#172E5A"/>
</g>
<defs>
<clipPath id="clip0_6426_593289">
<rect width="32" height="32" fill="white"/>
</clipPath>
</defs>
</svg>
